<svg width="192" height="192" viewBox="0 0 192 192" fill="none" xmlns="http://www.w3.org/2000/svg">
<path d="M45.8732 120.062V80.0656C45.8732 78.3126 46.5652 76.6057 47.8107 75.3602L57.0372 66.1337L68.2934 54.8775L86.1465 37.0243L89.9755 33.1954C92.236 30.9349 95.8343 30.9349 98.0948 33.1954C100.355 35.4558 100.355 39.0541 98.0948 41.3146L94.2658 45.1436L68.3395 71.116L59.067 80.3885C57.8214 81.6341 57.1294 83.341 57.1294 85.094L57.0833 125.875C57.0833 128.827 54.6844 131.226 51.732 131.226H51.2706C48.3182 131.226 45.9193 128.827 45.9193 125.875" fill="url(#paint0_linear_834_9871)"/>
<path d="M145.749 83.5718V124.583C145.749 128.274 142.751 131.226 139.106 131.226H73.9213C70.8305 131.226 68.3393 128.735 68.3393 125.644C68.3393 122.553 70.8305 120.062 73.9213 120.062H127.896C131.587 120.062 134.539 117.064 134.539 113.419V88.185C134.539 86.432 133.847 84.7251 132.601 83.4795L115.163 66.0415C112.58 63.4581 108.336 63.4581 105.753 66.0415L78.0271 93.767C75.8128 95.9813 72.1683 95.9813 69.954 93.767C67.7396 91.5526 67.7396 87.9082 69.954 85.6938L105.614 50.0337C108.198 47.4503 112.442 47.4503 115.025 50.0337L143.858 78.8663C145.011 80.0657 145.749 81.7726 145.749 83.5718Z" fill="url(#paint1_linear_834_9871)"/>
<path d="M53.9037 144.263C57.4231 144.263 60.2705 146.151 61.3423 149.382H57.695C56.9431 147.862 55.5834 147.11 53.8877 147.11C51.1202 147.11 49.1526 149.126 49.1526 152.342C49.1526 155.541 51.1202 157.573 53.8877 157.573C55.5834 157.573 56.9431 156.821 57.695 155.285H61.3423C60.2705 158.548 57.4231 160.404 53.9037 160.404C49.3445 160.404 45.8732 157.077 45.8732 152.326C45.8732 147.622 49.3445 144.263 53.9037 144.263Z" fill="#95274D"/>
<path d="M68.813 160.5C65.1817 160.5 62.4462 157.956 62.4462 154.021C62.4462 150.054 65.2776 147.542 68.909 147.542C72.5403 147.542 75.3718 150.054 75.3718 154.021C75.3718 157.956 72.4763 160.5 68.813 160.5ZM68.813 157.732C70.4927 157.732 72.1084 156.501 72.1084 154.021C72.1084 151.51 70.5407 150.31 68.861 150.31C67.1813 150.31 65.6616 151.51 65.6616 154.021C65.6616 156.517 67.1173 157.732 68.813 157.732Z" fill="#95274D"/>
<path d="M82.8263 144.471C86.6336 144.471 88.5372 146.662 88.5372 149.318C88.5372 151.238 87.4654 153.189 84.9379 153.877L88.7292 160.292H85.0499L81.5625 154.117H80.0588V160.292H76.8914V144.471H82.8263ZM82.7143 147.094H80.0588V151.749H82.7143C84.49 151.749 85.2738 150.822 85.2738 149.398C85.2738 147.99 84.49 147.094 82.7143 147.094Z" fill="#95274D"/>
<path d="M96.088 160.5C92.4407 160.5 89.7852 157.956 89.7852 154.021C89.7852 150.054 92.3767 147.542 96.088 147.542C99.7193 147.542 102.279 150.006 102.279 153.749C102.279 154.165 102.263 154.565 102.183 154.981H93.0006C93.1605 156.837 94.4243 157.876 96.024 157.876C97.3838 157.876 98.1356 157.189 98.5356 156.357H101.959C101.287 158.66 99.2074 160.5 96.088 160.5ZM93.0326 152.837H98.9995C98.9515 151.19 97.6397 150.134 96.008 150.134C94.4883 150.134 93.2885 151.11 93.0326 152.837Z" fill="#95274D"/>
<path d="M112.581 153.365C112.581 151.35 111.477 150.262 109.797 150.262C108.07 150.262 106.966 151.35 106.966 153.365V160.292H103.799V147.734H106.966V149.302C107.782 148.23 109.142 147.558 110.757 147.558C113.685 147.558 115.764 149.462 115.764 152.933V160.292H112.597V153.365H112.581Z" fill="#95274D"/>
<path d="M118.452 150.342H116.948V147.734H118.452V144.631H121.651V147.734H124.467V150.342H121.651V156.421C121.651 157.253 121.987 157.62 122.995 157.62H124.467V160.292H122.467C120.068 160.292 118.452 159.268 118.452 156.389V150.342Z" fill="#95274D"/>
<path d="M131.426 160.5C127.778 160.5 125.123 157.956 125.123 154.021C125.123 150.054 127.714 147.542 131.426 147.542C135.057 147.542 137.616 150.006 137.616 153.749C137.616 154.165 137.6 154.565 137.52 154.981H128.338C128.498 156.837 129.762 157.876 131.362 157.876C132.721 157.876 133.473 157.189 133.873 156.357H137.296C136.609 158.66 134.529 160.5 131.426 160.5ZM128.354 152.837H134.321C134.273 151.19 132.961 150.134 131.33 150.134C129.81 150.134 128.61 151.11 128.354 152.837Z" fill="#95274D"/>
<path d="M142.272 160.292H139.104V147.734H142.272V149.686C143.071 148.39 144.383 147.558 146.127 147.558V150.886H145.295C143.407 150.886 142.272 151.606 142.272 154.037V160.292Z" fill="#95274D"/>
<defs>
<linearGradient id="paint0_linear_834_9871" x1="45.8732" y1="131.226" x2="105.131" y2="33.5181" gradientUnits="userSpaceOnUse">
<stop offset="0.00558659" stop-color="#FFA79D"/>
<stop offset="0.525" stop-color="#95274D"/>
<stop offset="1" stop-color="#7B0943"/>
</linearGradient>
<linearGradient id="paint1_linear_834_9871" x1="68.2932" y1="131.226" x2="103.178" y2="32.0972" gradientUnits="userSpaceOnUse">
<stop offset="0.00558659" stop-color="#FFA79D"/>
<stop offset="0.525" stop-color="#95274D"/>
<stop offset="1" stop-color="#7B0943"/>
</linearGradient>
</defs>
</svg>
